# xmcd
#
# Track frame offsets:
#  150
#  14302
#  23902
#  36903
#  50563
#  63976
#  74060
#  84201
#  96811
#  108216
#  120750
#  132246
#  143371
#  153090
#  163402
#  173827
#  185334
#  194068
#  205693
#  218633
#  226623
#  240299
#  252397
#  265455
#  275944
#  288572
#  296982
#
# Disc length: 4078 seconds
#
# Revision: 0
# Processed by: cddbd v1.5.1PL0 Copyright (c) Steve Scherf et al.
# Submitted via: Collectorz.com Music Collector 6.9
#
DISCID=890fec1b
DTITLE=Roscoe Shelton - Deep In My Soul
DYEAR=2005
DGENRE=Blues
TTITLE0=The Fire Still Burns
TTITLE1=Master Mind
TTITLE2=Strain On My Heart
TTITLE3=I Can Cry If I Want To
TTITLE4=Easy Going Fellow
TTITLE5=My Best Friend
TTITLE6=I Know Your Heart
TTITLE7=Soon As Darkness Falls
TTITLE8=Love Comes And Goes
TTITLE9=Keep Your Mind
TTITLE10=Running From Your Life
TTITLE11=Love Is The Key
TTITLE12=You're The Dream
TTITLE13=A Mans Love
TTITLE14=My Laura
TTITLE15=Challenge Of Love
TTITLE16=Trying To Quit
TTITLE17=Worry
TTITLE18=Saving Face
TTITLE19=I'm Still The Man
TTITLE20=There's A Heartbreak Somewhere
TTITLE21=You're Living Too Fast
TTITLE22=I'm Ready
TTITLE23=Who Walks
TTITLE24=Let Me Be The One
TTITLE25=You Better Take Time
TTITLE26=I Can't Help Myself
EXTD=
EXTT0=
EXTT1=
EXTT2=
EXTT3=
EXTT4=
EXTT5=
EXTT6=
EXTT7=
EXTT8=
EXTT9=
EXTT10=
EXTT11=
EXTT12=
EXTT13=
EXTT14=
EXTT15=
EXTT16=
EXTT17=
EXTT18=
EXTT19=
EXTT20=
EXTT21=
EXTT22=
EXTT23=
EXTT24=
EXTT25=
EXTT26=
PLAYORDER=
